<svg width="48" height="47" viewBox="0 0 48 47" fill="none" xmlns="http://www.w3.org/2000/svg">
<path d="M40.7967 29.9632C40.7967 34.4458 38.8588 38.4865 35.7514 41.3907C32.7109 44.2634 28.5009 45.9996 23.8566 45.9996C19.2457 45.9996 15.0358 44.2318 11.9618 41.3907C8.85448 38.4865 6.91656 34.4458 6.91656 29.9632C6.91656 21.0926 14.5012 13.9268 23.8566 13.9268C33.2121 13.9268 40.7967 21.1242 40.7967 29.9632Z" fill="#F1F3F9" stroke="#D6DCE8" stroke-miterlimit="10"/>
<path d="M42.5515 23.8806C43.3081 23.8806 43.9215 23.3011 43.9215 22.5863C43.9215 21.8715 43.3081 21.292 42.5515 21.292C41.795 21.292 41.1816 21.8715 41.1816 22.5863C41.1816 23.3011 41.795 23.8806 42.5515 23.8806Z" fill="#EAEEF9"/>
<path d="M41.3314 14.4006C41.848 14.4006 42.2669 14.0049 42.2669 13.5167C42.2669 13.0285 41.848 12.6328 41.3314 12.6328C40.8147 12.6328 40.3958 13.0285 40.3958 13.5167C40.3958 14.0049 40.8147 14.4006 41.3314 14.4006Z" fill="#EAEEF9"/>
<path d="M7.45105 19.4192C7.96774 19.4192 8.38659 19.0234 8.38659 18.5353C8.38659 18.0471 7.96774 17.6514 7.45105 17.6514C6.93436 17.6514 6.5155 18.0471 6.5155 18.5353C6.5155 19.0234 6.93436 19.4192 7.45105 19.4192Z" fill="#EAEEF9"/>
<path d="M1.73744 36.4657C2.697 36.4657 3.47488 35.7307 3.47488 34.8241C3.47488 33.9176 2.697 33.1826 1.73744 33.1826C0.777879 33.1826 0 33.9176 0 34.8241C0 35.7307 0.777879 36.4657 1.73744 36.4657Z" fill="#EAEEF9"/>
<path d="M36.7012 20.5216L35.3078 30.0844L33.566 41.9006C33.1596 42.1204 32.6951 42.2853 32.2307 42.2853H12.1423C11.2714 42.2853 10.5166 42.0105 9.87798 41.5708C9.70381 41.4609 9.52963 41.296 9.35545 41.1311C8.65875 40.4716 8.19427 39.4824 8.19427 38.4382V17.9935C8.19427 17.0592 9.0071 16.3447 9.93604 16.3447H16.0322C16.4386 16.3447 16.8451 16.5096 17.1934 16.8394L19.1674 18.8728C19.4577 19.1476 19.8641 19.3125 20.2705 19.3125H35.54C36.2367 19.3125 36.7593 19.8621 36.7012 20.5216Z" fill="#D6DCE8" stroke="#AAB2C5" stroke-miterlimit="10"/>
<path d="M11.1559 40.1969L12.7815 22.4452C12.8396 21.7856 13.4202 21.291 14.1169 21.291H37.2243C37.863 21.291 38.3275 21.7856 38.2694 22.3902L36.6437 37.5039L11.1559 40.1969Z" fill="white" stroke="#D6DCE8" stroke-miterlimit="10" stroke-linejoin="round"/>
<path d="M20.3871 38.2726L11.9105 40.1412L17.1358 26.5664C17.368 25.9619 17.9486 25.5771 18.6453 25.5771H39.1401C39.8949 25.5771 40.4174 26.3466 40.069 27.0061L34.4954 37.778L20.3871 38.2726Z" fill="white" stroke="#D6DCE8" stroke-miterlimit="10" stroke-linejoin="round"/>
<path d="M42.0432 31.4042L34.2633 41.2968C34.0891 41.5166 33.7988 41.7364 33.5666 41.9013C33.1602 42.1211 32.6957 42.286 32.2312 42.286H12.1428C11.272 42.286 10.5172 42.0112 9.87854 41.5716L18.0068 32.6133H30.7797C31.3603 32.6133 31.9409 32.4484 32.4054 32.0637L34.6116 30.4699C34.8439 30.305 35.0761 30.1951 35.3083 30.0852C35.5986 29.9752 35.947 29.9203 36.2373 29.9203H41.2304C42.0432 29.8653 42.5076 30.7996 42.0432 31.4042Z" fill="#D6DCE8" stroke="#AAB2C5" stroke-miterlimit="10"/>
<path d="M37.7166 18.3275L28.6027 12.75C28.0787 12.4262 27.9258 11.7678 28.2669 11.2672L33.9265 3.03439C34.27 2.53943 34.9675 2.39461 35.4975 2.71616L44.6114 8.29361C45.1355 8.61747 45.2883 9.27584 44.9473 9.77643L39.2901 18.0149C38.9466 18.5098 38.2407 18.6513 37.7166 18.3275Z" fill="#F1F3F9" stroke="#D6DCE8" stroke-miterlimit="10"/>
<path d="M38.059 16.7856L30.0461 11.8815C29.8196 11.7453 29.7585 11.4595 29.903 11.2457L34.5832 4.43845C34.7277 4.22457 35.0304 4.16667 35.2569 4.30287L43.2698 9.20702C43.4963 9.34321 43.5574 9.62896 43.4129 9.84284L38.7327 16.6501C38.5882 16.8639 38.2855 16.9218 38.059 16.7856Z" fill="white"/>
<path d="M35.9843 11.8551L33.0596 10.064L35.5937 9.39288L35.9843 11.8551Z" fill="#B0B7C4"/>
<path d="M38.4043 13.3356L34.1907 10.7596L37.8393 9.79544L38.4043 13.3356Z" fill="#CED6E2"/>
<path d="M35.3789 8.31799C35.5165 8.63555 35.9009 8.78744 36.2374 8.65723C36.5739 8.52703 36.7351 8.16405 36.5974 7.84648C36.4598 7.52892 36.0754 7.37703 35.7389 7.50724C35.4024 7.63744 35.2412 8.00042 35.3789 8.31799Z" fill="#B0B7C4"/>
<path d="M22.3845 8.54275C22.1317 7.68689 21.7779 6.68025 21.2513 5.93311C20.9628 5.52184 20.5229 5.22647 20.0039 5.11559C19.4344 4.99773 18.9226 5.11264 18.3677 5.24111C17.3803 5.43682 16.4001 5.72148 15.4417 6.06777C14.5841 6.35961 13.5751 6.63051 12.8906 7.21016C11.8964 8.06946 12.1277 9.13734 12.4815 10.2808C12.7343 11.1367 13.088 12.1433 13.6146 12.8904C14.0403 13.4868 14.7829 13.824 15.5253 13.7508C16.5055 13.6714 18.4658 13.1021 19.4099 12.7831C20.2243 12.5048 21.1395 12.2405 21.824 11.7293C22.9696 10.8909 22.7816 9.80948 22.3845 8.54275ZM15.7962 8.44268C15.6879 8.13453 15.8248 7.97755 16.1636 8.05373C17.0719 8.24776 18.0091 8.45556 18.9174 8.6496C19.2562 8.72577 19.3212 8.91067 19.1051 9.18373C18.5 9.85253 17.9021 10.5419 17.297 11.2107C17.0521 11.47 16.8719 11.4353 16.7492 11.1545C16.7059 11.0312 15.8973 8.7303 15.7962 8.44268Z" fill="#D6DCE8" stroke="#AAB2C5" stroke-miterlimit="10"/>
<path d="M16.3889 40.6025L16.389 40.6025L16.3907 40.5948C16.806 38.696 16.2127 36.6842 14.8226 35.2941L14.816 35.2875L14.8092 35.2812C13.9973 34.5272 13.0261 33.9636 11.8965 33.7255C8.7514 33.0439 5.70554 35.0928 5.05587 38.2231C4.40528 41.3577 6.41492 44.4343 9.55066 45.0871C10.8925 45.3844 12.2249 45.1436 13.3406 44.5857L13.3406 44.5858L13.3454 44.5833C14.4334 44.0246 15.323 43.1673 15.8873 42.0684L15.8916 42.06L15.8956 42.0515C16.1015 41.6103 16.2741 41.0904 16.3889 40.6025Z" fill="white" stroke="#AAB2C5"/>
<path d="M12.4147 37.9461H12.1978V37.7292C12.1978 36.9724 11.5989 36.2695 10.7381 36.2695C9.98133 36.2695 9.27842 36.8685 9.27842 37.7292V37.9461H9.06157C8.30479 37.9461 7.60187 38.545 7.60187 39.4058C7.60187 39.7805 7.73714 40.1581 8.02321 40.4441C8.30928 40.7302 8.68683 40.8655 9.06157 40.8655H9.27842V41.0823C9.27842 41.8391 9.87734 42.542 10.7381 42.542C11.4949 42.542 12.1978 41.9431 12.1978 41.0823V40.8655H12.4147C13.1715 40.8655 13.8744 40.2666 13.8744 39.4058C13.8744 38.545 13.1715 37.9461 12.4147 37.9461Z" fill="white" stroke="#AAB2C5" stroke-width="2"/>
</svg>
